<?xml version="1.0" standalone="no"?>
<!DOCTYPE svg PUBLIC "-//W3C//DTD SVG 20010904//EN"
 "http://www.w3.org/TR/2001/REC-SVG-20010904/DTD/svg10.dtd">
<svg version="1.0" xmlns="http://www.w3.org/2000/svg"
 width="512.000000pt" height="512.000000pt" viewBox="0 0 512.000000 512.000000"
 preserveAspectRatio="xMidYMid meet">
<g transform="translate(0.000000,512.000000) scale(0.100000,-0.100000)"
fill="#000000" stroke="none">
<path d="M2235 5104 c-591 -80 -1100 -334 -1510 -755 -192 -197 -330 -388
-448 -621 -192 -376 -277 -737 -277 -1168 0 -431 85 -792 277 -1168 118 -233
256 -424 448 -621 413 -424 923 -678 1518 -756 156 -20 478 -20 634 0 595 78
1105 332 1518 756 192 197 330 388 448 621 192 376 277 737 277 1168 0 431
-85 792 -277 1168 -118 233 -256 424 -448 621 -413 424 -923 678 -1518 756
-146 19 -500 19 -642 -1z m-1173 -1963 l3 -560 510 559 510 559 158 0 c119 1
156 -2 151 -11 -4 -6 -209 -229 -456 -495 -255 -275 -446 -489 -442 -495 4 -6
215 -292 468 -637 254 -344 465 -632 470 -638 6 -10 -27 -13 -151 -13 l-158 0
-416 555 -416 554 -114 -101 -114 -102 -5 -450 -5 -451 -135 0 -135 0 -3 1143
-2 1142 140 0 140 0 2 -559z m2610 544 c347 -46 522 -171 573 -410 41 -196 -6
-384 -127 -502 -62 -60 -162 -116 -242 -134 -31 -7 -56 -16 -56 -20 0 -4 19
-10 43 -14 182 -31 356 -151 422 -292 55 -115 66 -285 29 -431 -57 -224 -233
-380 -502 -444 -80 -19 -126 -21 -574 -25 l-488 -5 0 1146 0 1146 404 0 c301
0 434 -4 518 -15z"/>
<path d="M3020 3094 l0 -376 298 5 c316 6 385 14 485 60 67 30 114 78 146 147
22 48 26 68 26 165 0 94 -3 117 -23 160 -77 167 -239 215 -724 215 l-208 0 0
-376z"/>
<path d="M3020 2064 l0 -427 308 6 c339 7 401 15 511 68 119 58 179 145 202
288 29 193 -39 350 -184 420 -123 60 -152 64 -509 69 l-328 4 0 -428z"/>
</g>
</svg>
